<svg width="326" height="88" viewBox="0 0 326 88" fill="none" xmlns="http://www.w3.org/2000/svg">
<path d="M69.9011 73.1807L27.8906 80.3299L38.1773 83.5705C40.653 84.3504 43.2899 84.4672 45.8248 83.9093L69.6456 78.7758C70.9665 78.4851 71.6809 77.0484 71.1155 75.8198L69.9011 73.1807Z" fill="#0081F9"/>
<path d="M69.9011 73.1807L27.8906 80.3299L38.1773 83.5705C40.653 84.3504 43.2899 84.4672 45.8248 83.9093L69.6456 78.7758C70.9665 78.4851 71.6809 77.0484 71.1155 75.8198L69.9011 73.1807Z" fill="url(#paint0_linear_562_18)"/>
<path d="M18.0746 57.2303C17.8551 66.0271 24.8083 73.3362 33.6051 73.5558C42.4018 73.7754 49.711 66.8222 49.9306 58.0254C50.1501 49.2286 43.1969 41.9194 34.4002 41.6999C25.6034 41.4803 18.2942 48.4335 18.0746 57.2303Z" fill="url(#paint1_linear_562_18)"/>
<path d="M69.0066 49.5733C68.7283 60.7265 59.4611 69.5424 48.3078 69.264C37.1545 68.9856 28.3387 59.7184 28.617 48.5652C28.8954 37.4119 38.1626 28.596 49.3159 28.8744C60.4692 29.1528 69.285 38.42 69.0066 49.5733Z" fill="url(#paint2_linear_562_18)"/>
<path fill-rule="evenodd" clip-rule="evenodd" d="M15.0338 4.08307L76.1044 11.5948C81.9693 12.2919 86.3861 17.2649 86.3861 23.171V54.5703C86.3861 60.1683 82.407 64.976 76.9077 66.0225L15.8371 78.0478C8.65383 79.4148 2 73.9078 2 66.5956V15.6593C2 8.6754 8.09879 3.25867 15.0338 4.08307ZM17.7423 13.5619C14.1876 13.1386 12.068 15.7881 12.068 18.8387L12.0634 62.5139C12.0634 65.6372 15.2474 68.2867 17.9567 67.7568L75.0997 60.1301C77.7104 60.1301 80.0273 57.8491 80.0273 54.0183V24.7964C80.0273 20.5572 78.3051 18.9675 74.5959 18.4376L17.7423 13.5619Z" fill="#0081F9"/>
<path fill-rule="evenodd" clip-rule="evenodd" d="M15.0338 4.08307L76.1044 11.5948C81.9693 12.2919 86.3861 17.2649 86.3861 23.171V54.5703C86.3861 60.1683 82.407 64.976 76.9077 66.0225L15.8371 78.0478C8.65383 79.4148 2 73.9078 2 66.5956V15.6593C2 8.6754 8.09879 3.25867 15.0338 4.08307ZM17.7423 13.5619C14.1876 13.1386 12.068 15.7881 12.068 18.8387L12.0634 62.5139C12.0634 65.6372 15.2474 68.2867 17.9567 67.7568L75.0997 60.1301C77.7104 60.1301 80.0273 57.8491 80.0273 54.0183V24.7964C80.0273 20.5572 78.3051 18.9675 74.5959 18.4376L17.7423 13.5619Z" fill="url(#paint3_linear_562_18)"/>
<path fill-rule="evenodd" clip-rule="evenodd" d="M63.5925 44.8298L31.5 48.8398L31.5002 48.8413C38.5334 47.9628 44.9473 52.952 45.8261 59.9852C46.6967 66.9531 41.8081 73.3133 34.8782 74.2856L66.775 70.3001C73.8084 69.4212 78.7977 63.0071 77.9189 55.9737C77.04 48.9403 70.6259 43.951 63.5925 44.8298Z" fill="url(#paint4_linear_562_18)"/>
<path d="M125.593 25.8689C130.024 25.9016 133.405 26.8525 135.736 28.7213C138.063 30.5574 139.494 33.459 140.029 37.4262C140.167 38.4426 140.251 39.6885 140.282 41.1639L140.384 47.5082C140.367 52.8525 139.214 56.7377 136.926 59.1639C134.633 61.5574 130.957 62.7705 125.898 62.8033H110.355L110 25.8689H125.593ZM125.923 57.3934C128.974 57.3934 131.153 56.6393 132.459 55.1312C133.764 53.623 134.407 51.1803 134.387 47.8033L134.357 40.8689C134.314 39.5574 134.258 38.6393 134.187 38.1148C133.864 35.7213 133.043 33.9836 131.723 32.9016C130.437 31.8197 128.469 31.2787 125.82 31.2787H116.011L116.215 57.3934H125.923Z" fill="#223649"/>
<path d="M158.165 35.2131C161.619 35.2131 164.326 36.0164 166.286 37.623C168.276 39.1967 169.481 41.541 169.901 44.6557C169.998 45.3771 170.054 46.1639 170.069 47.0164L170.112 51.4426H151.35L151.357 51.4918C151.387 52.2131 151.42 52.7049 151.455 52.9672C151.681 54.6393 152.335 55.8853 153.418 56.7049C154.531 57.4918 156.26 57.8852 158.608 57.8852H161.072C162.816 57.8852 165.445 57.7377 168.96 57.4426L169.097 62.5574C166.186 62.8525 163.557 63 161.209 63H158.744C154.687 63 151.594 62.1967 149.466 60.5902C147.371 58.9836 146.114 56.623 145.694 53.5082C145.592 52.7541 145.538 51.9836 145.533 51.1967L145.478 47.0656C145.417 43.1311 146.343 40.1803 148.258 38.2131C150.167 36.2131 153.134 35.2131 157.159 35.2131H158.165ZM164.288 46.6721L164.281 46.623C164.251 45.9016 164.214 45.3771 164.17 45.0492C163.957 43.4754 163.36 42.2787 162.377 41.459C161.428 40.6393 160.032 40.2295 158.187 40.2295H157.181C153.224 40.2295 151.267 42.3771 151.31 46.6721H164.288Z" fill="#223649"/>
<path d="M181.903 63C178.809 62.9344 176.126 62.8033 173.852 62.6066L173.89 57.2951C177.216 57.5902 179.873 57.7705 181.86 57.8361H183.571C185.717 57.8361 187.174 57.5738 187.941 57.0492C188.742 56.5246 189.177 55.7705 189.246 54.7869C189.257 54.623 189.243 54.3934 189.203 54.0984C189.092 53.2787 188.885 52.7377 188.582 52.4754C188.298 52.1148 187.879 51.8689 187.325 51.7377C186.771 51.6066 185.728 51.459 184.197 51.2951L183.02 51.1475C181.259 51.0164 179.559 50.7213 177.921 50.2623C176.618 49.8033 175.608 49.1475 174.889 48.2951C174.166 47.4098 173.707 46.2459 173.513 44.8033C173.473 44.5082 173.438 44 173.408 43.2787C173.373 41.2787 173.749 39.7213 174.538 38.6066C175.322 37.459 176.519 36.6393 178.13 36.1475C179.74 35.6557 181.87 35.4098 184.519 35.4098H186.581L193.68 35.459L193.73 40.6721H184.575C183.099 40.6721 181.987 40.7541 181.238 40.918C180.484 41.0492 179.947 41.2951 179.627 41.6557C179.336 41.9836 179.184 42.4754 179.172 43.1311C179.161 43.2951 179.173 43.5082 179.208 43.7705C179.279 44.2951 179.49 44.7377 179.84 45.0984C180.229 45.4918 180.752 45.7705 181.412 45.9344C182.1 46.0656 183.346 46.2295 185.15 46.4262C187.289 46.623 189.058 46.9344 190.457 47.3607C191.684 47.7541 192.663 48.4262 193.395 49.3771C194.16 50.3279 194.645 51.5574 194.848 53.0656C194.946 53.7869 194.987 54.3443 194.973 54.7377C194.982 57.7869 194.096 59.918 192.315 61.1312C190.538 62.3771 187.637 63 183.613 63H181.903Z" fill="#223649"/>
<path d="M205.868 62.7541H200.084L199.785 24H205.569L205.743 45.0492L215.66 35.4098H223.808L210.628 47.7049L224.982 62.7541H217.488L205.776 49.7705L205.868 62.7541Z" fill="#223649"/>
<path d="M226.145 40.6721L226.089 35.4098H232.427L232.34 28.4262H238.124L238.211 35.4098H246.762L246.818 40.6721H238.267L238.4 53.2131C238.397 53.4426 238.423 53.7541 238.476 54.1475C238.772 56.3443 240.027 57.4426 242.24 57.4426C243.179 57.4426 244.851 57.4098 247.257 57.3443L247.326 62.7049C245.994 62.7705 244.321 62.8033 242.309 62.8033C239.56 62.8033 237.348 62.1967 235.676 60.9836C234.003 59.7705 233.005 57.9672 232.682 55.5738C232.647 55.3115 232.614 54.8197 232.584 54.0984L232.432 40.6721H226.145Z" fill="#223649"/>
<path d="M267.123 40.7705C265.035 40.7049 263.69 40.6721 263.086 40.6721C260.94 40.6721 259.399 41.1803 258.463 42.1967C257.522 43.1803 257.073 44.8197 257.114 47.1148L257.219 62.8033H251.434L251.299 47.2623C251.241 43.0984 252.108 40.082 253.901 38.2131C255.728 36.3443 258.771 35.4098 263.03 35.4098C264.707 35.4098 266.138 35.459 267.325 35.5574L267.123 40.7705Z" fill="#223649"/>
<path d="M269.933 47.0656C269.84 39.1639 273.75 35.2131 281.664 35.2131H284.078C291.02 35.2131 294.911 38.3279 295.751 44.5574C295.853 45.3115 295.913 46.1311 295.932 47.0164L295.986 51.1475C296.08 59.0492 292.17 63 284.256 63H281.841C274.9 63 271.009 59.8853 270.168 53.6557C270.067 52.9016 270.006 52.082 269.988 51.1967L269.933 47.0656ZM284.2 57.7377C288.224 57.7377 290.214 55.5902 290.171 51.2951L290.127 46.8689C290.106 46.2131 290.078 45.7541 290.042 45.4918C289.591 42.1475 287.622 40.4754 284.134 40.4754H281.72C277.696 40.4754 275.705 42.623 275.748 46.918L275.792 51.3443C275.813 52 275.842 52.459 275.877 52.7213C276.328 56.0656 278.298 57.7377 281.785 57.7377H284.2Z" fill="#223649"/>
<path d="M307.169 40.6721L307.439 62.8033H301.654L301.379 35.4098H314.005C320.946 35.4098 324.837 38.5246 325.678 44.7541C325.779 45.5082 325.84 46.3279 325.858 47.2131L326 62.8033H320.215L320.054 47.0656C320.032 46.4098 320.004 45.9508 319.969 45.6885C319.518 42.3443 317.548 40.6721 314.061 40.6721H307.169Z" fill="#223649"/>
<defs>
<linearGradient id="paint0_linear_562_18" x1="27.9446" y1="78.2674" x2="68.5369" y2="79.3209" gradientUnits="userSpaceOnUse">
<stop stop-color="#84DAFF"/>
<stop offset="1" stop-color="#266EFF"/>
</linearGradient>
<linearGradient id="paint1_linear_562_18" x1="34.4002" y1="41.6999" x2="33.6051" y2="73.5558" gradientUnits="userSpaceOnUse">
<stop stop-color="#5EA8FF"/>
<stop offset="1" stop-color="#0779FE"/>
</linearGradient>
<linearGradient id="paint2_linear_562_18" x1="49.3159" y1="28.8744" x2="48.3078" y2="69.264" gradientUnits="userSpaceOnUse">
<stop stop-color="#7CE0FF"/>
<stop offset="1" stop-color="#35AAFF"/>
</linearGradient>
<linearGradient id="paint3_linear_562_18" x1="2" y1="39.8231" x2="86.3861" y2="39.8231" gradientUnits="userSpaceOnUse">
<stop stop-color="#8DD9FA"/>
<stop offset="1" stop-color="#266EFF"/>
</linearGradient>
<linearGradient id="paint4_linear_562_18" x1="53.9138" y1="46.0392" x2="57.0963" y2="71.5094" gradientUnits="userSpaceOnUse">
<stop stop-color="#C7F1FF"/>
<stop offset="1" stop-color="#6BD3FF"/>
</linearGradient>
</defs>
</svg>
