<svg width="88" height="88" viewBox="0 0 88 88" fill="none" xmlns="http://www.w3.org/2000/svg">
<path d="M69.9011 73.1807L27.8906 80.3299L38.1773 83.5705C40.653 84.3504 43.2899 84.4672 45.8248 83.9093L69.6456 78.7758C70.9665 78.4851 71.6809 77.0484 71.1155 75.8198L69.9011 73.1807Z" fill="#0081F9"/>
<path d="M69.9011 73.1807L27.8906 80.3299L38.1773 83.5705C40.653 84.3504 43.2899 84.4672 45.8248 83.9093L69.6456 78.7758C70.9665 78.4851 71.6809 77.0484 71.1155 75.8198L69.9011 73.1807Z" fill="url(#paint0_linear_561_116)"/>
<path d="M18.0746 57.2303C17.8551 66.0271 24.8083 73.3362 33.6051 73.5558C42.4018 73.7754 49.711 66.8222 49.9306 58.0254C50.1501 49.2286 43.1969 41.9194 34.4002 41.6999C25.6034 41.4803 18.2942 48.4335 18.0746 57.2303Z" fill="url(#paint1_linear_561_116)"/>
<path d="M69.0066 49.5733C68.7283 60.7265 59.4611 69.5424 48.3078 69.264C37.1545 68.9856 28.3387 59.7184 28.617 48.5652C28.8954 37.4119 38.1626 28.596 49.3159 28.8744C60.4692 29.1528 69.285 38.42 69.0066 49.5733Z" fill="url(#paint2_linear_561_116)"/>
<path fill-rule="evenodd" clip-rule="evenodd" d="M15.0338 4.08307L76.1044 11.5948C81.9693 12.2919 86.3861 17.2649 86.3861 23.171V54.5703C86.3861 60.1683 82.407 64.976 76.9077 66.0225L15.8371 78.0478C8.65383 79.4148 2 73.9078 2 66.5956V15.6593C2 8.6754 8.09879 3.25867 15.0338 4.08307ZM17.7423 13.5619C14.1876 13.1386 12.068 15.7881 12.068 18.8387L12.0634 62.5139C12.0634 65.6372 15.2474 68.2867 17.9567 67.7568L75.0997 60.1301C77.7104 60.1301 80.0273 57.8491 80.0273 54.0183V24.7964C80.0273 20.5572 78.3051 18.9675 74.5959 18.4376L17.7423 13.5619Z" fill="#0081F9"/>
<path fill-rule="evenodd" clip-rule="evenodd" d="M15.0338 4.08307L76.1044 11.5948C81.9693 12.2919 86.3861 17.2649 86.3861 23.171V54.5703C86.3861 60.1683 82.407 64.976 76.9077 66.0225L15.8371 78.0478C8.65383 79.4148 2 73.9078 2 66.5956V15.6593C2 8.6754 8.09879 3.25867 15.0338 4.08307ZM17.7423 13.5619C14.1876 13.1386 12.068 15.7881 12.068 18.8387L12.0634 62.5139C12.0634 65.6372 15.2474 68.2867 17.9567 67.7568L75.0997 60.1301C77.7104 60.1301 80.0273 57.8491 80.0273 54.0183V24.7964C80.0273 20.5572 78.3051 18.9675 74.5959 18.4376L17.7423 13.5619Z" fill="url(#paint3_linear_561_116)"/>
<path fill-rule="evenodd" clip-rule="evenodd" d="M63.5925 44.8298L31.5 48.8398L31.5002 48.8413C38.5334 47.9628 44.9473 52.952 45.8261 59.9852C46.6967 66.9531 41.8081 73.3133 34.8782 74.2856L66.775 70.3001C73.8084 69.4212 78.7977 63.0071 77.9189 55.9737C77.04 48.9403 70.6259 43.951 63.5925 44.8298Z" fill="url(#paint4_linear_561_116)"/>
<defs>
<linearGradient id="paint0_linear_561_116" x1="27.9446" y1="78.2674" x2="68.5369" y2="79.3209" gradientUnits="userSpaceOnUse">
<stop stop-color="#84DAFF"/>
<stop offset="1" stop-color="#266EFF"/>
</linearGradient>
<linearGradient id="paint1_linear_561_116" x1="34.4002" y1="41.6999" x2="33.6051" y2="73.5558" gradientUnits="userSpaceOnUse">
<stop stop-color="#5EA8FF"/>
<stop offset="1" stop-color="#0779FE"/>
</linearGradient>
<linearGradient id="paint2_linear_561_116" x1="49.3159" y1="28.8744" x2="48.3078" y2="69.264" gradientUnits="userSpaceOnUse">
<stop stop-color="#7CE0FF"/>
<stop offset="1" stop-color="#35AAFF"/>
</linearGradient>
<linearGradient id="paint3_linear_561_116" x1="2" y1="39.8231" x2="86.3861" y2="39.8231" gradientUnits="userSpaceOnUse">
<stop stop-color="#8DD9FA"/>
<stop offset="1" stop-color="#266EFF"/>
</linearGradient>
<linearGradient id="paint4_linear_561_116" x1="53.9138" y1="46.0392" x2="57.0963" y2="71.5094" gradientUnits="userSpaceOnUse">
<stop stop-color="#C7F1FF"/>
<stop offset="1" stop-color="#6BD3FF"/>
</linearGradient>
</defs>
</svg>
