<?xml version="1.0" encoding="utf-8"?>
<!-- Generator: Adobe Illustrator 24.0.0, SVG Export Plug-In . SVG Version: 6.00 Build 0)  -->
<svg version="1.1" id="图层_1" xmlns="http://www.w3.org/2000/svg" xmlns:xlink="http://www.w3.org/1999/xlink" x="0px" y="0px"
	 viewBox="0 0 256 256" style="enable-background:new 0 0 256 256;" xml:space="preserve">
<style type="text/css">
	.st0{display:none;fill-rule:evenodd;clip-rule:evenodd;fill:#FFFFFF;}
	.st1{fill-rule:evenodd;clip-rule:evenodd;fill:#00D6E1;}
	.st2{fill-rule:evenodd;clip-rule:evenodd;fill:#0175FF;}
	.st3{opacity:0.63;fill-rule:evenodd;clip-rule:evenodd;fill:#004CE1;}
</style>
<g>
	<path class="st0" d="M48.75,0h158.5C234.17,0,256,21.83,256,48.75v158.5c0,26.92-21.83,48.75-48.75,48.75H48.75
		C21.83,256,0,234.17,0,207.25V48.75C0,21.83,21.83,0,48.75,0z"/>
	<g>
		<path class="st1" d="M116.09,31.78c0,0-9.28,0.72-10.21,7.05c-1.19,8.09-7.1,48.27-8.28,56.32c-1.19,8.06,6.89,7.74,6.17,7.95
			c-0.72,0.21,64.73,2.59,64.73,2.59s-8.88,60.37-9.99,67.95c-1.11,7.57,6.94,8.94,6.94,8.94s45.12,4.97,54.14,5.97
			c9.02,0.99,10.21-7.05,10.21-7.05l22.09-150.2c0,0-0.05-6.77-6.43-6.16C239.06,25.76,116.09,31.78,116.09,31.78z"/>
		<path class="st2" d="M22.74,74.03c0,0-9.28,0.72-10.21,7.05c-1.19,8.09-7.1,48.27-8.28,56.32c-1.19,8.06,6.89,7.74,6.17,7.95
			c-0.72,0.21,64.73,2.59,64.73,2.59s-8.88,60.37-9.99,67.95c-1.11,7.57,6.94,8.94,6.94,8.94s45.12,4.97,54.14,5.97
			c9.02,1,10.21-7.05,10.21-7.05l22.09-150.2c0,0-0.05-6.77-6.43-6.16C145.71,68.01,22.74,74.03,22.74,74.03z"/>
		<path class="st3" d="M101.07,70.12c0,0-2.44,18.59-3.49,25.27s5.52,7.84,5.52,7.84l51.3,0.37l4.23-28.54c0,0,2.19-8.05-7.55-7.51
			C144.1,67.55,101.07,70.12,101.07,70.12z"/>
	</g>
</g>
</svg>
